<?xml version="1.0" encoding="UTF-8" standalone="no"?><!-- Generator: Gravit.io --><svg xmlns="http://www.w3.org/2000/svg" xmlns:xlink="http://www.w3.org/1999/xlink" style="isolation:isolate" viewBox="0 0 108 32" width="108pt" height="32pt"><defs><clipPath id="_clipPath_2SH0uxY9boXuWLcHupZyjwq8cgOUujR6"><rect width="108" height="32"/></clipPath></defs><g clip-path="url(#_clipPath_2SH0uxY9boXuWLcHupZyjwq8cgOUujR6)"><rect width="108" height="32" style="fill:rgb(0,0,0)" fill-opacity="0"/><path d=" M 39.373 11.738 L 42.372 11.738 L 47.012 24.618 L 47.075 24.618 L 51.747 11.738 L 54.746 11.738 L 48.906 27.522 L 45.213 27.522 L 39.373 11.738 Z  M 57.903 11.738 L 60.965 11.738 L 60.965 27.522 L 57.903 27.522 L 57.903 11.738 Z  M 61.123 7.856 L 57.745 7.856 L 57.745 4.478 L 61.123 4.478 L 61.123 7.856 Z  M 64.753 27.522 L 64.753 25.439 L 72.708 14.548 L 72.708 14.485 L 65.068 14.485 L 65.068 11.738 L 76.622 11.738 L 76.622 13.822 L 68.667 24.713 L 68.667 24.776 L 76.622 24.776 L 76.622 27.522 L 64.753 27.522 Z  M 94.142 11.738 L 94.142 27.522 L 90.48 27.522 L 84.388 27.522 L 80.726 27.522 L 80.726 11.738 L 84.388 11.738 L 90.48 11.738 L 94.142 11.738 Z  M 91.08 14.327 L 83.788 14.327 L 83.788 24.934 L 91.08 24.934 L 91.08 14.327 Z  M 108 11.738 L 108 14.485 L 102.255 14.485 L 102.255 27.522 L 99.193 27.522 L 99.193 11.738 L 101.497 11.738 L 102.706 11.738 L 104.496 11.738 L 108 11.738 Z " fill-rule="evenodd" fill="rgb(78,83,179)"/><g><rect x="0" y="0" width="32" height="32" transform="matrix(1,0,0,1,0,0)" fill="rgb(55,58,125)"/><rect x="2" y="16" width="5.847" height="14" transform="matrix(1,0,0,1,0,0)" fill="rgb(247,247,247)"/><rect x="16.769" y="5.5" width="5.847" height="24.5" transform="matrix(1,0,0,1,0,0)" fill="rgb(247,247,247)"/><rect x="9.384" y="9" width="5.847" height="21" transform="matrix(1,0,0,1,0,0)" fill="rgb(247,247,247)"/><rect x="24.153" y="2" width="5.847" height="28" transform="matrix(1,0,0,1,0,0)" fill="rgb(247,247,247)"/></g></g></svg>